/* XPM */
static char * xmmeec_32_xpm[] = {
"32 32 176 2",
"  	c None",
". 	c #A7C9A5",
"+ 	c #B4D8B1",
"@ 	c #A2C3A0",
"# 	c #B9DEB6",
"$ 	c #C6EEC3",
"% 	c #B1D5AE",
"& 	c #C7EFC4",
"* 	c #B0D4AE",
"= 	c #C9F1C6",
"- 	c #CAF3C7",
"; 	c #BAE1B7",
"> 	c #ACCDA9",
", 	c #AACBA7",
"' 	c #AACCA7",
") 	c #ACCFA9",
"! 	c #B3D8B0",
"~ 	c #C7F0C4",
"{ 	c #C5EDC2",
"] 	c #D2FCCF",
"^ 	c #95B692",
"/ 	c #3F493E",
"( 	c #ABB1AA",
"_ 	c #CDD0CC",
": 	c #D7D8D7",
"< 	c #D2D3D2",
"[ 	c #CACCCA",
"} 	c #ACB0AC",
"| 	c #434D42",
"1 	c #98BA96",
"2 	c #D3FED0",
"3 	c #B1D3AE",
"4 	c #687467",
"5 	c #A19DA1",
"6 	c #FFFFFF",
"7 	c #9C969C",
"8 	c #677265",
"9 	c #AFD3AC",
"0 	c #CBF4C8",
"a 	c #D9FFD6",
"b 	c #829B80",
"c 	c #B0B2B0",
"d 	c #F5F5F5",
"e 	c #F8F7F8",
"f 	c #898B89",
"g 	c #718B6E",
"h 	c #CAF4C7",
"i 	c #768C74",
"j 	c #939094",
"k 	c #A9ABA9",
"l 	c #C4ECC1",
"m 	c #AED0AB",
"n 	c #C3C3C3",
"o 	c #FAFAFB",
"p 	c #525751",
"q 	c #D8FFD4",
"r 	c #D3FECF",
"s 	c #535652",
"t 	c #F9F8F9",
"u 	c #F8F6F8",
"v 	c #597057",
"w 	c #CBF3C8",
"x 	c #597358",
"y 	c #E4E1E4",
"z 	c #747D72",
"A 	c #C2EBBF",
"B 	c #C4EDC1",
"C 	c #697468",
"D 	c #9DA39D",
"E 	c #BBE2B8",
"F 	c #BEE6BB",
"G 	c #929990",
"H 	c #ADB2AC",
"I 	c #BEE5BB",
"J 	c #99A098",
"K 	c #9BA19B",
"L 	c #C1E9BE",
"M 	c #7C857B",
"N 	c #636E62",
"O 	c #C3ECC0",
"P 	c #C8F1C6",
"Q 	c #5A6E59",
"R 	c #F6F3F6",
"S 	c #959595",
"T 	c #87A986",
"U 	c #CAF2C7",
"V 	c #5A5D5A",
"W 	c #FCFCFC",
"X 	c #E7E5E7",
"Y 	c #444644",
"Z 	c #A2C39F",
"` 	c #CCF5C9",
" .	c #B0D5AD",
"..	c #919691",
"+.	c #DCDCDC",
"@.	c #F1F0F1",
"#.	c #FDFCFD",
"$.	c #CFD1CF",
"%.	c #B8BDB8",
"&.	c #818980",
"*.	c #4D624B",
"=.	c #D7FFD3",
"-.	c #B8DDB5",
";.	c #A2C0A0",
">.	c #6C796B",
",.	c #3E3B3D",
"'.	c #5E5C5E",
").	c #6C6A6C",
"!.	c #5D5A5D",
"~.	c #E8E7E8",
"{.	c #5D715C",
"].	c #B6DCB3",
"^.	c #BCE3B9",
"/.	c #C8F0C4",
"(.	c #D7FFD4",
"_.	c #DCFFD9",
":.	c #B4DBB2",
"<.	c #B4DAB1",
"[.	c #93B58F",
"}.	c #726F72",
"|.	c #525B51",
"1.	c #C6EDC3",
"2.	c #C8F0C5",
"3.	c #DBFFD8",
"4.	c #3A373B",
"5.	c #919791",
"6.	c #B9DFB6",
"7.	c #E7FFE2",
"8.	c #3B3A3B",
"9.	c #C4C7C3",
"0.	c #ADD0AA",
"a.	c #E1FFDD",
"b.	c #515551",
"c.	c #D1D2D1",
"d.	c #A8CAA5",
"e.	c #C7EEC4",
"f.	c #E5FFE1",
"g.	c #3F3F3F",
"h.	c #E4E4E4",
"i.	c #A1BE9E",
"j.	c #E8FFE4",
"k.	c #383738",
"l.	c #EAE9EA",
"m.	c #91A990",
"n.	c #C5EFC3",
"o.	c #474347",
"p.	c #F0EFF0",
"q.	c #879B86",
"r.	c #CEF8CA",
"s.	c #7E9D7C",
"t.	c #B2AFB2",
"u.	c #E8E8E9",
"v.	c #8FA78D",
"w.	c #B8DEB6",
"x.	c #465744",
"y.	c #DBDBDB",
"z.	c #A8C9A6",
"A.	c #C1E8BE",
"B.	c #D0F9CC",
"C.	c #CAF3C6",
"D.	c #919A90",
"E.	c #777D77",
"F.	c #D1FACD",
"G.	c #BCE1B8",
"H.	c #6E846D",
"I.	c #778E75",
"J.	c #70886E",
"K.	c #626661",
"L.	c #DDDDDD",
"M.	c #E5E5E5",
"N.	c #E3E3E3",
"O.	c #838083",
"P.	c #495E48",
"Q.	c #728870",
"R.	c #6F856D",
"S.	c #657A63",
"                                                                ",
"  . + + + + + + + + + + + + + + + + + + + + + + + + + + + + @   ",
"  # $ $ $ $ $ $ $ $ $ $ $ $ $ $ $ $ $ $ $ $ $ $ $ $ $ $ $ $ %   ",
"  # $ $ $ $ $ $ $ $ $ $ $ $ $ & & $ $ $ $ $ $ $ $ $ $ $ $ $ *   ",
"  # $ $ $ $ $ $ $ $ $ = - ; + > , ' ) ! ~ = $ $ $ $ $ $ $ $ *   ",
"  # $ $ $ $ $ $ $ { ] ^ / ( _ : : < [ } | 1 2 & $ $ $ $ $ $ *   ",
"  # $ $ $ $ $ { ~ 3 4 5 6 6 6 6 6 6 6 6 6 7 8 9 0 $ $ $ $ $ *   ",
"  # $ $ $ $ { a b c d 6 6 6 6 6 6 6 6 6 6 6 e f g h $ $ $ $ *   ",
"  # $ $ $ $ & i j 6 6 6 6 6 6 6 6 6 6 6 6 6 6 6 k ' ~ $ $ $ *   ",
"  # $ $ $ l m n 6 6 6 6 6 6 6 6 6 6 6 6 6 6 6 6 o p q $ $ $ *   ",
"  # $ $ $ r s t 6 6 6 6 6 6 6 6 6 6 6 6 6 6 6 6 6 u v 0 $ $ *   ",
"  # $ $ w x y 6 6 6 6 6 6 6 6 6 6 6 6 6 6 6 6 6 6 6 z A $ $ *   ",
"  # $ $ B C 6 6 6 6 6 6 6 6 6 6 6 6 6 6 6 6 6 6 6 6 D E $ $ *   ",
"  # $ $ F G 6 6 6 6 6 6 6 6 6 6 6 6 6 6 6 6 6 6 6 6 H ; $ $ *   ",
"  # $ $ I J 6 6 6 6 6 6 6 6 6 6 6 6 6 6 6 6 6 6 6 6 K ; $ $ *   ",
"  # $ $ L M 6 6 6 6 6 6 6 6 6 6 6 6 6 6 6 6 6 6 6 6 N O $ $ *   ",
"  # $ $ P Q R 6 6 6 6 6 6 6 6 6 6 6 6 6 6 6 6 6 6 S T U $ $ *   ",
"  # $ $ & ~ V W 6 6 6 6 6 6 6 6 6 6 6 6 6 6 6 X Y Z ` $ $ $ *   ",
"  # $ $ $ l  ...+.@.6 6 6 6 6 6 6 6 6 #.$.%.&.*.=.= $ $ $ $ *   ",
"  # $ $ $ $ & -.;.>.,.'.).!.6 6 6 6 6 ~.{.].^.0 $ $ $ $ $ $ *   ",
"  # $ $ $ $ $ $ /.(._.:.<.[.}.6 6 6 6 6 |.~ $ $ $ $ $ $ $ $ *   ",
"  # $ $ $ $ $ $ $ 1.$ 2.2.3.4.6 6 6 6 6 5.6.$ $ $ $ $ $ $ $ *   ",
"  # $ $ $ $ $ $ $ $ $ $ { 7.8.6 6 6 6 6 9.0.$ $ $ $ $ $ $ $ *   ",
"  # $ $ $ $ $ $ $ $ $ $ { a.b.6 6 6 6 6 c.d.e.$ $ $ $ $ $ $ *   ",
"  # $ $ $ $ $ $ $ $ $ $ { f.g.6 6 6 6 6 h.i.2.$ $ $ $ $ $ $ *   ",
"  # $ $ $ $ $ $ $ $ $ $ { j.k.6 6 6 6 6 l.m.w $ $ $ $ $ $ $ *   ",
"  # $ $ $ $ $ $ $ $ $ $ & n.o.6 6 6 6 6 p.q.r.$ $ $ $ $ $ $ *   ",
"  # $ $ $ $ $ $ $ $ $ $ - s.t.6 6 6 6 6 u.v.w $ $ $ $ $ $ $ *   ",
"  w.$ $ $ $ $ $ $ $ $ $ = x.6 6 6 6 6 6 y.z.$ $ $ $ $ $ $ $ *   ",
"  A.B.B.B.B.B.B.B.B.B.B.C.D.6 6 6 6 6 6 E.~ F.F.F.F.F.F.F.F.G.  ",
"  H.I.I.I.I.I.I.I.I.I.I.J.K.L.M.N.h.M.O.P.Q.R.R.R.R.R.R.R.R.S.  ",
"                                                                "};
