/* XPM */
static char * xmmeec_48_xpm[] = {
"48 48 276 2",
"  	c None",
". 	c #4D5C4C",
"+ 	c #738A72",
"@ 	c #738A71",
"# 	c #718870",
"$ 	c #404D3F",
"% 	c #829C80",
"& 	c #C5ECC2",
"* 	c #C4ECC1",
"= 	c #C2E9BF",
"- 	c #6A7F69",
"; 	c #839E81",
"> 	c #C7EFC4",
", 	c #C6EEC3",
"' 	c #657963",
") 	c #647863",
"! 	c #C8F0C5",
"~ 	c #C9F1C6",
"{ 	c #C2EABF",
"] 	c #BEE5BB",
"^ 	c #C0E8BD",
"/ 	c #C3EBC0",
"( 	c #CAF2C7",
"_ 	c #C7F0C4",
": 	c #CDF7CA",
"< 	c #CDF7C9",
"[ 	c #A5C8A2",
"} 	c #7C9A7B",
"| 	c #778F75",
"1 	c #626F61",
"2 	c #777F76",
"3 	c #707970",
"4 	c #666F66",
"5 	c #677166",
"6 	c #4F614E",
"7 	c #6F886D",
"8 	c #ADD0AA",
"9 	c #D3FED0",
"0 	c #C9F2C6",
"a 	c #C5EDC2",
"b 	c #CCF5C9",
"c 	c #BDE4BA",
"d 	c #738B71",
"e 	c #2C302B",
"f 	c #646463",
"g 	c #D3D3D3",
"h 	c #E6E6E6",
"i 	c #ECEBEC",
"j 	c #F6F6F6",
"k 	c #F5F5F5",
"l 	c #F3F3F3",
"m 	c #F0F0F0",
"n 	c #EBEBEB",
"o 	c #E4E3E4",
"p 	c #B5B5B5",
"q 	c #3F403F",
"r 	c #465346",
"s 	c #9FC09C",
"t 	c #6D836B",
"u 	c #4A4E4A",
"v 	c #A19EA1",
"w 	c #FEFEFE",
"x 	c #FFFFFF",
"y 	c #D4D2D4",
"z 	c #6C696C",
"A 	c #4C574A",
"B 	c #A3C5A1",
"C 	c #C8F1C5",
"D 	c #CAF3C7",
"E 	c #90B08E",
"F 	c #565C55",
"G 	c #A8A6A7",
"H 	c #FCFCFC",
"I 	c #5B5D5B",
"J 	c #779075",
"K 	c #CDF6CA",
"L 	c #D3FDD0",
"M 	c #819A7F",
"N 	c #676866",
"O 	c #FDFDFD",
"P 	c #807F80",
"Q 	c #475545",
"R 	c #C6EFC3",
"S 	c #667C64",
"T 	c #545355",
"U 	c #ACACAC",
"V 	c #697F68",
"W 	c #7A9478",
"X 	c #949594",
"Y 	c #6D6D6D",
"Z 	c #9DBD9A",
"` 	c #CBF4C8",
" .	c #BBE1B8",
"..	c #636662",
"+.	c #F6F5F6",
"@.	c #EAEAEB",
"#.	c #373B36",
"$.	c #D4FFD1",
"%.	c #485447",
"&.	c #B9B7B9",
"*.	c #D4D3D4",
"=.	c #526751",
"-.	c #D0FACD",
";.	c #91B08E",
">.	c #5E5C5E",
",.	c #515950",
"'.	c #3A4A39",
").	c #EEEDEE",
"!.	c #7F807E",
"~.	c #A5C9A2",
"{.	c #B6DDB4",
"].	c #5D625C",
"^.	c #A6A6A6",
"/.	c #94B392",
"(.	c #A3C6A0",
"_.	c #7D7D7C",
":.	c #AEAFAE",
"<.	c #86A284",
"[.	c #9ABB98",
"}.	c #A0A19F",
"|.	c #BFBFBF",
"1.	c #8CA98A",
"2.	c #9CBC99",
"3.	c #A5A6A5",
"4.	c #AEAEAE",
"5.	c #89A586",
"6.	c #98B995",
"7.	c #90908F",
"8.	c #97B794",
"9.	c #ACD1A9",
"0.	c #767976",
"a.	c #535953",
"b.	c #B7DEB4",
"c.	c #C0E8BE",
"d.	c #4B554A",
"e.	c #FEFDFE",
"f.	c #979697",
"g.	c #5E765D",
"h.	c #CEF8CC",
"i.	c #6E876C",
"j.	c #7E7C7E",
"k.	c #817F81",
"l.	c #586B56",
"m.	c #CFF9CC",
"n.	c #CFF8CC",
"o.	c #485448",
"p.	c #BAB9BA",
"q.	c #212221",
"r.	c #88A386",
"s.	c #BFE7BC",
"t.	c #475047",
"u.	c #BEBDBE",
"v.	c #F2F2F2",
"w.	c #E2E2E3",
"x.	c #C8C9C8",
"y.	c #9FA09E",
"z.	c #474D47",
"A.	c #445542",
"B.	c #C0E6BD",
"C.	c #D0FACC",
"D.	c #B8DEB5",
"E.	c #70846E",
"F.	c #686D67",
"G.	c #8A878A",
"H.	c #C1BFC1",
"I.	c #DFDEDF",
"J.	c #616861",
"K.	c #6F806F",
"L.	c #778E75",
"M.	c #84A181",
"N.	c #B6DCB3",
"O.	c #D2FDCF",
"P.	c #9BB998",
"Q.	c #556454",
"R.	c #242623",
"S.	c #100F10",
"T.	c #4B4B4B",
"U.	c #4E4E4E",
"V.	c #444344",
"W.	c #D9D9D9",
"X.	c #516050",
"Y.	c #CAF2C6",
"Z.	c #C1E8BF",
"`.	c #9FC19D",
" +	c #A4C6A1",
".+	c #A6C9A4",
"++	c #769173",
"@+	c #676667",
"#+	c #404340",
"$+	c #CBF3C7",
"%+	c #CEF8CB",
"&+	c #B4D8B1",
"*+	c #2E2D2E",
"=+	c #6F7070",
"-+	c #9BBC99",
";+	c #D6FFD3",
">+	c #151515",
",+	c #B1B1B1",
"'+	c #728B70",
")+	c #DEFFDA",
"!+	c #1B1D1B",
"~+	c #F4F3F4",
"{+	c #E1E1E1",
"]+	c #536651",
"^+	c #DCFFD8",
"/+	c #262B26",
"(+	c #EAEAEA",
"_+	c #5E6B5D",
":+	c #C3EABF",
"<+	c #D9FFD6",
"[+	c #384038",
"}+	c #F4F4F4",
"|+	c #636A63",
"1+	c #BDE5BA",
"2+	c #C6EDC3",
"3+	c #DCFFD9",
"4+	c #212321",
"5+	c #F7F6F7",
"6+	c #787A77",
"7+	c #B4D9B1",
"8+	c #282D28",
"9+	c #8C8D8C",
"0+	c #A0C29E",
"a+	c #141414",
"b+	c #9B9B9B",
"c+	c #94B292",
"d+	c #C0E7BE",
"e+	c #191719",
"f+	c #AFAEAF",
"g+	c #86A184",
"h+	c #CAF3C6",
"i+	c #5D5C5C",
"j+	c #AAAAAA",
"k+	c #D1FBCE",
"l+	c #5E755D",
"m+	c #878888",
"n+	c #9CBD9A",
"o+	c #333F31",
"p+	c #FFFEFF",
"q+	c #727672",
"r+	c #B9E0B6",
"s+	c #B5DBB2",
"t+	c #606660",
"u+	c #E3E2E3",
"v+	c #546353",
"w+	c #88A286",
"x+	c #CDF6C9",
"y+	c #CDF5C9",
"z+	c #CEF6CA",
"A+	c #A4C7A1",
"B+	c #9E9F9E",
"C+	c #606160",
"D+	c #ABD0A9",
"E+	c #6E846C",
"F+	c #596B57",
"G+	c #86A084",
"H+	c #657B63",
"I+	c #7C7D7C",
"J+	c #F1F1F1",
"K+	c #F8F8F8",
"L+	c #FBFBFB",
"M+	c #F7F7F7",
"N+	c #7D7B7D",
"O+	c #485A47",
"P+	c #87A285",
"Q+	c #819B7F",
"R+	c #809A7E",
"S+	c #495747",
"T+	c #3A3A3A",
"U+	c #767676",
"V+	c #8E8E8E",
"W+	c #868686",
"X+	c #878787",
"Y+	c #888888",
"Z+	c #8B8B8B",
"`+	c #4F4F4F",
"                                                                                                ",
"  . + @ @ @ @ @ @ @ @ @ @ @ @ @ @ @ @ @ @ @ @ @ @ @ @ @ @ @ @ @ @ @ @ @ @ @ @ @ @ @ @ @ @ # $   ",
"  % & * * * * * * * * * * * * * * * * * * * * * * * * * * * * * * * * * * * * * * * * * * = -   ",
"  ; > , , , , , , , , , , , , , , , , , , , , , , , , , , , , , , , , , , , , , , , , , , * '   ",
"  ; > , , , , , , , , , , , , , , , , , , , , , , , , , , , , , , , , , , , , , , , , , , * )   ",
"  ; > , , , , , , , , , , , , , , , , , , , , , , , , , , , , , , , , , , , , , , , , , , * )   ",
"  ; > , , , , , , , , , , , , , , , , ! ~ ~ { ] ] ] ^ / > ( _ , , , , , , , , , , , , , , * )   ",
"  ; > , , , , , , , , , , , , , > : < [ } | 1 2 3 4 5 1 6 7 8 9 0 , , , , , , , , , , , , * )   ",
"  ; > , , , , , , , , , , , a b c d e f g h i j k l m n o p q r s 0 0 , , , , , , , , , , * )   ",
"  ; > , , , , , , , , , , ~ = t u v w x x x x x x x x x x x x y z A B C , , , , , , , , , * )   ",
"  ; > , , , , , , , , a D E F G H x x x x x x x x x x x x x x x x o I J K > , , , , , , , * )   ",
"  ; > , , , , , , , a L M N n x x x x x x x x x x x x x x x x x x x O P Q R R , , , , , , * )   ",
"  ; > , , , , , , , K S T x x x x x x x x x x x x x x x x x x x x x x x U V , , , , , , , * )   ",
"  ; > , , , , , , > W X x x x x x x x x x x x x x x x x x x x x x x x x x Y Z ` , , , , , * )   ",
"  ; > , , , , , a  ...+.x x x x x x x x x x x x x x x x x x x x x x x x x @.#.R > , , , , * )   ",
"  ; > , , , , , $.%.&.x x x x x x x x x x x x x x x x x x x x x x x x x x x *.=.-., , , , * )   ",
"  ; > , , , , b ;.>.x x x x x x x x x x x x x x x x x x x x x x x x x x x x x ,.] , , , , * )   ",
"  ; > , , , , b '.).x x x x x x x x x x x x x x x x x x x x x x x x x x x x x !.~.> , , , * )   ",
"  ; > , , , R {.].x x x x x x x x x x x x x x x x x x x x x x x x x x x x x x ^./.> , , , * )   ",
"  ; > , , , > (._.x x x x x x x x x x x x x x x x x x x x x x x x x x x x x x :.<._ , , , * )   ",
"  ; > , , , > [.}.x x x x x x x x x x x x x x x x x x x x x x x x x x x x x x |.1._ , , , * )   ",
"  ; > , , , > 2.3.x x x x x x x x x x x x x x x x x x x x x x x x x x x x x x 4.5._ , , , * )   ",
"  ; > , , , > 6.7.x x x x x x x x x x x x x x x x x x x x x x x x x x x x x x X 8.> , , , * )   ",
"  ; > , , , > 9.0.x x x x x x x x x x x x x x x x x x x x x x x x x x x x x x a.b.R , , , * )   ",
"  ; > , , , , c.d.e.x x x x x x x x x x x x x x x x x x x x x x x x x x x x f.g.h., , , , * )   ",
"  ; > , , , , : i.j.x x x x x x x x x x x x x x x x x x x x x x x x x x x k.l.m., , , , , * )   ",
"  ; > , , , , , n.o.&.x x x x x x x x x x x x x x x x x x x x x x x x p.q.r./ > , , , , , * )   ",
"  ; > , , , , , a s.t.u.k x x x x x x x x x x x x x x x x x v.w.x.y.z.A.B.C., , , , , , , * )   ",
"  ; > , , , , , , ! D.E.F.G.H.x x x x x x x x x x x x x x I.J.K.L.M.N.O.C a , , , , , , , * )   ",
"  ; > , , , , , , , > ,  .P.Q.R.S.T.U.U.V.l x x x x x x x W.X.D , > > , , , , , , , , , , * )   ",
"  ; > , , , , , , , , , , Y.$.$.Z.`. +.+++@+x x x x x x x x #+R , , , , , , , , , , , , , * )   ",
"  ; > , , , , , , , , , , , a , ! ` $+%+&+*+x x x x x x x x =+-+! , , , , , , , , , , , , * )   ",
"  ; > , , , , , , , , , , , , , , , , , ;+>+x x x x x x x x ,+'+( , , , , , , , , , , , , * )   ",
"  ; > , , , , , , , , , , , , , , , , a )+!+~+x x x x x x x {+]+~ , , , , , , , , , , , , * )   ",
"  ; > , , , , , , , , , , , , , , , , a ^+/+).x x x x x x x (+_+:+, , , , , , , , , , , , * )   ",
"  ; > , , , , , , , , , , , , , , , , a <+[+}+x x x x x x x }+|+1+2+, , , , , , , , , , , * )   ",
"  ; > , , , , , , , , , , , , , , , , a 3+4+5+x x x x x x x x 6+7+, , , , , , , , , , , , * )   ",
"  ; > , , , , , , , , , , , , , , , , a ^+8+k x x x x x x x x 9+0+> , , , , , , , , , , , * )   ",
"  ; > , , , , , , , , , , , , , , , , a )+a+O x x x x x x x x b+c+! , , , , , , , , , , , * )   ",
"  ; > , , , , , , , , , , , , , , , , ! d+e+x x x x x x x x x f+g+h+, , , , , , , , , , , * )   ",
"  ; > , , , , , , , , , , , , , , , , ` [.i+x x x x x x x x x j+r.0 , , , , , , , , , , , * )   ",
"  ; > , , , , , , , , , , , , , , , , k+l+f+x x x x x x x x x m+n+> , , , , , , , , , , , * )   ",
"  ; > , , , , , , , , , , , , , , , , ~ o+p+x x x x x x x x O q+r+a , , , , , , , , , , , * )   ",
"  ; , , , , , , , , , , , , , , , , , s+t+x x x x x x x x x u+v+a , , , , , , , , , , , , * '   ",
"  w+x+y+y+y+y+y+y+y+y+y+y+y+y+y+y+y+z+A+B+x x x x x x x x x C+D+: y+y+y+y+y+y+y+y+y+y+y+y+$+E+  ",
"  F+G+G+G+G+G+G+G+G+G+G+G+G+G+G+G+G+g+H+I+J+K+H O O O L+M+N+O+P+Q+Q+Q+Q+Q+Q+Q+Q+Q+Q+Q+Q+Q+R+S+  ",
"                                          T+U+V+W+X+Y+Z+`+                                      ",
"                                                                                                "};
