/* XPM */
static char * xmmeec_64_xpm[] = {
"64 64 348 2",
"  	c None",
". 	c #131612",
"+ 	c #2E372E",
"@ 	c #2F392F",
"# 	c #293229",
"$ 	c #3F4C3E",
"% 	c #A8CAA5",
"& 	c #ADD0AB",
"* 	c #96B594",
"= 	c #151915",
"- 	c #485747",
"; 	c #C0E6BD",
"> 	c #C6EEC3",
", 	c #ABCEA9",
"' 	c #171B17",
") 	c #ACCFA9",
"! 	c #141814",
"~ 	c #ACCFAA",
"{ 	c #131613",
"] 	c #131713",
"^ 	c #C9F2C6",
"/ 	c #CCF5C8",
"( 	c #CDF6CA",
"_ 	c #CBF4C8",
": 	c #C9F1C6",
"< 	c #C7EFC4",
"[ 	c #C6EFC3",
"} 	c #CAF2C6",
"| 	c #CEF8CB",
"1 	c #D0FACD",
"2 	c #D2FDCF",
"3 	c #98B795",
"4 	c #6E856C",
"5 	c #546853",
"6 	c #546753",
"7 	c #566954",
"8 	c #6D856C",
"9 	c #7F9A7D",
"0 	c #A1C29F",
"a 	c #C2E9BF",
"b 	c #D3FED0",
"c 	c #CCF5C9",
"d 	c #C8F1C5",
"e 	c #C4EBC1",
"f 	c #9AB998",
"g 	c #5D715B",
"h 	c #3A473A",
"i 	c #393F38",
"j 	c #4B4B4B",
"k 	c #7B7C7B",
"l 	c #B5B5B5",
"m 	c #AAABAA",
"n 	c #939493",
"o 	c #979797",
"p 	c #7C7C7C",
"q 	c #666666",
"r 	c #272827",
"s 	c #000100",
"t 	c #2A332A",
"u 	c #778F75",
"v 	c #C8F0C5",
"w 	c #BFE6BC",
"x 	c #A2C39F",
"y 	c #5F705D",
"z 	c #262726",
"A 	c #413F41",
"B 	c #9D9B9D",
"C 	c #F5F4F5",
"D 	c #FFFFFF",
"E 	c #C1C0C1",
"F 	c #504E50",
"G 	c #1D1C1E",
"H 	c #687B67",
"I 	c #9DBD9A",
"J 	c #BEE5BB",
"K 	c #CEF7CB",
"L 	c #86A284",
"M 	c #3D4A3C",
"N 	c #505151",
"O 	c #9F9D9F",
"P 	c #EAEAEA",
"Q 	c #E4E4E4",
"R 	c #535353",
"S 	c #3E4A3C",
"T 	c #91AF8F",
"U 	c #CFF9CC",
"V 	c #C7EFC3",
"W 	c #3E4B3C",
"X 	c #3F403E",
"Y 	c #C7C6C7",
"Z 	c #F3F3F3",
"` 	c #F6F5F6",
" .	c #D1D1D1",
"..	c #232522",
"+.	c #5D715C",
"@.	c #A2C3A0",
"#.	c #181D18",
"$.	c #949394",
"%.	c #F9F9F9",
"&.	c #514F51",
"*.	c #445143",
"=.	c #BBE0B8",
"-.	c #849E82",
";.	c #323431",
">.	c #7E7D7E",
",.	c #323931",
"'.	c #ABCEA8",
").	c #C7F0C4",
"!.	c #61765F",
"~.	c #2D2F2E",
"{.	c #DFDEDF",
"].	c #B2B1B2",
"^.	c #343D33",
"/.	c #BEE5BC",
"(.	c #6B8369",
"_.	c #585958",
":.	c #FEFEFE",
"<.	c #8C8B8C",
"[.	c #4C5B4B",
"}.	c #3D3E3C",
"|.	c #F8F8F8",
"1.	c #FEFFFE",
"2.	c #292629",
"3.	c #89A587",
"4.	c #374136",
"5.	c #B4B2B4",
"6.	c #DADADA",
"7.	c #2C302B",
"8.	c #B4D9B1",
"9.	c #5E715D",
"0.	c #565556",
"a.	c #B6B6B6",
"b.	c #516450",
"c.	c #CCF6C9",
"d.	c #AFD2AC",
"e.	c #121412",
"f.	c #F6F6F6",
"g.	c #F4F4F4",
"h.	c #474F47",
"i.	c #B5DAB3",
"j.	c #CAF3C7",
"k.	c #5A6E58",
"l.	c #FAF9FA",
"m.	c #606260",
"n.	c #9EBF9C",
"o.	c #BDE3BA",
"p.	c #323C31",
"q.	c #EAE9EA",
"r.	c #8E8C8E",
"s.	c #809B7E",
"t.	c #A2C4A0",
"u.	c #5A5D5A",
"v.	c #B2B0B2",
"w.	c #70846E",
"x.	c #8FAC8C",
"y.	c #6F6D6F",
"z.	c #FDFDFD",
"A.	c #B7B6B7",
"B.	c #4E5C4E",
"C.	c #738B71",
"D.	c #9B999B",
"E.	c #CAC9CA",
"F.	c #5C6A5B",
"G.	c #758B74",
"H.	c #AEADAE",
"I.	c #D0CFD0",
"J.	c #5F6D5E",
"K.	c #788F77",
"L.	c #C2C1C2",
"M.	c #586556",
"N.	c #70866E",
"O.	c #A6A4A6",
"P.	c #5D6F5C",
"Q.	c #728A70",
"R.	c #908E90",
"S.	c #819C7F",
"T.	c #95B493",
"U.	c #777777",
"V.	c #FCFCFC",
"W.	c #FAFAFA",
"X.	c #4D504D",
"Y.	c #A5C7A2",
"Z.	c #AACDA8",
"`.	c #4E534E",
" +	c #F7F7F7",
".+	c #9D9D9D",
"++	c #465745",
"@+	c #C6EEC4",
"#+	c #C3EAC0",
"$+	c #3C493B",
"%+	c #C4C4C4",
"&+	c #A09FA0",
"*+	c #1F271F",
"=+	c #BAE0B7",
"-+	c #92B090",
";+	c #1F1F1F",
">+	c #656365",
",+	c #B2D6AF",
"'+	c #504F50",
")+	c #949494",
"!+	c #0F100F",
"~+	c #657964",
"{+	c #C1E8BE",
"]+	c #435142",
"^+	c #636363",
"/+	c #E5E5E5",
"(+	c #EEEEEE",
"_+	c #D9D9D9",
":+	c #B9B8B9",
"<+	c #787978",
"[+	c #252B25",
"}+	c #435241",
"|+	c #A9CBA7",
"1+	c #6C836A",
"2+	c #3A3A3A",
"3+	c #898889",
"4+	c #F0F0F0",
"5+	c #F5F5F5",
"6+	c #999899",
"7+	c #5E5C5E",
"8+	c #4D4F4D",
"9+	c #495248",
"0+	c #4A5A48",
"a+	c #7B9579",
"b+	c #C5ECC2",
"c+	c #B3D7B0",
"d+	c #60725E",
"e+	c #1A1A19",
"f+	c #474547",
"g+	c #8B8A8B",
"h+	c #E7E7E7",
"i+	c #435042",
"j+	c #B2D7B0",
"k+	c #BADFB7",
"l+	c #90AD8D",
"m+	c #4E5F4D",
"n+	c #1A2019",
"o+	c #000200",
"p+	c #010301",
"q+	c #404240",
"r+	c #3C3E3C",
"s+	c #3B3C3B",
"t+	c #3D3F3D",
"u+	c #373837",
"v+	c #DCDCDC",
"w+	c #D2D2D2",
"x+	c #4C554B",
"y+	c #C5EDC2",
"z+	c #CBF3C7",
"A+	c #CDF7CA",
"B+	c #B1D5AF",
"C+	c #90AF8E",
"D+	c #9ABA98",
"E+	c #8AA789",
"F+	c #A4C6A2",
"G+	c #637961",
"H+	c #5F605F",
"I+	c #FBFBFB",
"J+	c #3B3A3B",
"K+	c #BCE2B9",
"L+	c #9AB997",
"M+	c #383938",
"N+	c #5A575A",
"O+	c #8AA689",
"P+	c #020402",
"Q+	c #9D9C9E",
"R+	c #040604",
"S+	c #1D221C",
"T+	c #D4FFD1",
"U+	c #0A0D09",
"V+	c #D6D6D6",
"W+	c #000000",
"X+	c #D1FBCE",
"Y+	c #354134",
"Z+	c #BBBABB",
"`+	c #373737",
" @	c #99B997",
".@	c #050805",
"+@	c #D8D8D8",
"@@	c #767676",
"#@	c #6D856B",
"$@	c #323E32",
"%@	c #D4D4D4",
"&@	c #A4A3A4",
"*@	c #425241",
"=@	c #141914",
"-@	c #D7D6D7",
";@	c #212B20",
">@	c #D2FCCE",
",@	c #293328",
"'@	c #D5D5D5",
")@	c #10170F",
"!@	c #BBE1B9",
"~@	c #D4FED0",
"{@	c #0E120E",
"]@	c #444943",
"^@	c #AFD3AC",
"/@	c #050705",
"(@	c #E3E3E3",
"_@	c #444844",
":@	c #A1C39F",
"<@	c #B8DDB6",
"[@	c #626562",
"}@	c #93B290",
"|@	c #303230",
"1@	c #8AA788",
"2@	c #686867",
"3@	c #515551",
"4@	c #A1C29E",
"5@	c #4C5E4B",
"6@	c #AAAAAA",
"7@	c #1A201A",
"8@	c #B5DAB2",
"9@	c #2B352A",
"0@	c #EDEDED",
"a@	c #1C251B",
"b@	c #A9CCA7",
"c@	c #505550",
"d@	c #616161",
"e@	c #728B71",
"f@	c #90AE8E",
"g@	c #141614",
"h@	c #C0E7BD",
"i@	c #4A5849",
"j@	c #7C937A",
"k@	c #AEACAE",
"l@	c #555355",
"m@	c #364135",
"n@	c #8FAC8D",
"o@	c #94B192",
"p@	c #94B292",
"q@	c #556553",
"r@	c #9A999A",
"s@	c #7F7E7F",
"t@	c #495948",
"u@	c #93B191",
"v@	c #80997E",
"w@	c #010101",
"x@	c #555555",
"y@	c #CBCBCB",
"z@	c #DEDEDE",
"A@	c #E1E1E1",
"B@	c #BABABA",
"C@	c #4C4C4C",
"D@	c #141414",
"E@	c #313131",
"F@	c #323232",
"G@	c #333333",
"                                                                                                                                ",
"  . + @ @ @ @ @ @ @ @ @ @ @ @ @ @ @ @ @ @ @ @ @ @ @ @ @ @ @ @ @ @ @ @ @ @ @ @ @ @ @ @ @ @ @ @ @ @ @ @ @ @ @ @ @ @ @ @ @ @ #     ",
"  $ % & & & & & & & & & & & & & & & & & & & & & & & & & & & & & & & & & & & & & & & & & & & & & & & & & & & & & & & & & & * =   ",
"  - ; > > > > > > > > > > > > > > > > > > > > > > > > > > > > > > > > > > > > > > > > > > > > > > > > > > > > > > > > > > , '   ",
"  - ; > > > > > > > > > > > > > > > > > > > > > > > > > > > > > > > > > > > > > > > > > > > > > > > > > > > > > > > > > > ) !   ",
"  - ; > > > > > > > > > > > > > > > > > > > > > > > > > > > > > > > > > > > > > > > > > > > > > > > > > > > > > > > > > > ~ {   ",
"  - ; > > > > > > > > > > > > > > > > > > > > > > > > > > > > > > > > > > > > > > > > > > > > > > > > > > > > > > > > > > ~ ]   ",
"  - ; > > > > > > > > > > > > > > > > > > > > > > > > > > > > > > > > > > > > > > > > > > > > > > > > > > > > > > > > > > ~ ]   ",
"  - ; > > > > > > > > > > > > > > > > > > > > > > > > > > ^ / ( ( ( ( / _ : < > > > > > > > > > > > > > > > > > > > > > > ~ ]   ",
"  - ; > > > > > > > > > > > > > > > > > > > > > [ } | 1 2 3 4 5 6 7 5 8 9 0 a b c > > > > > > > > > > > > > > > > > > > > ~ ]   ",
"  - ; > > > > > > > > > > > > > > > > > > > > d e f g h i j k l m n o p q r s t u ^ v > > > > > > > > > > > > > > > > > > ~ ]   ",
"  - ; > > > > > > > > > > > > > > > > > d w x y z A B C D D D D D D D D D D D E F G H I J ^ > > > > > > > > > > > > > > > ~ ]   ",
"  - ; > > > > > > > > > > > > > > > < K L M N O P D D D D D D D D D D D D D D D D Q O R S T U [ > > > > > > > > > > > > > ~ ]   ",
"  - ; > > > > > > > > > > > > > > ^ V W X Y Z D D D D D D D D D D D D D D D D D D D D `  ...+.^ > > > > > > > > > > > > > ~ ]   ",
"  - ; > > > > > > > > > > > > > > @.#.$.D D D D D D D D D D D D D D D D D D D D D D D D D %.&.*.=.< > > > > > > > > > > > ~ ]   ",
"  - ; > > > > > > > > > > > > _ -.;.Y D D D D D D D D D D D D D D D D D D D D D D D D D D D D >.,.'.).> > > > > > > > > > ~ ]   ",
"  - ; > > > > > > > > > > > 1 !.~.{.D D D D D D D D D D D D D D D D D D D D D D D D D D D D D D ].^./.> > > > > > > > > > ~ ]   ",
"  - ; > > > > > > > > > > ).(._.:.D D D D D D D D D D D D D D D D D D D D D D D D D D D D D D D D <.[./ > > > > > > > > > ~ ]   ",
"  - ; > > > > > > > > > < @.}.|.:.D D D D D D D D D D D D D D D D D D D D D D D D D D D D D D D D 1.2.3.c > > > > > > > > ~ ]   ",
"  - ; > > > > > > > > > > 4.5.D D D D D D D D D D D D D D D D D D D D D D D D D D D D D D D D D D D 6.7.8.< > > > > > > > ~ ]   ",
"  - ; > > > > > > > > 1 9.0.D D D D D D D D D D D D D D D D D D D D D D D D D D D D D D D D D D D D D a.b.c.> > > > > > > ~ ]   ",
"  - ; > > > > > > > ).d.e.f.D D D D D D D D D D D D D D D D D D D D D D D D D D D D D D D D D D D D D g.h.i.> > > > > > > ~ ]   ",
"  - ; > > > > > > > j.k.o D D D D D D D D D D D D D D D D D D D D D D D D D D D D D D D D D D D D D D l.m.n.> > > > > > > ~ ]   ",
"  - ; > > > > > > > o.p.q.D D D D D D D D D D D D D D D D D D D D D D D D D D D D D D D D D D D D D D D r.s.> > > > > > > ~ ]   ",
"  - ; > > > > > > > t.u.|.D D D D D D D D D D D D D D D D D D D D D D D D D D D D D D D D D D D D D D D v.w.< > > > > > > ~ ]   ",
"  - ; > > > > > > > x.y.z.D D D D D D D D D D D D D D D D D D D D D D D D D D D D D D D D D D D D D D D A.B.).> > > > > > ~ ]   ",
"  - ; > > > > > > < C.D.D D D D D D D D D D D D D D D D D D D D D D D D D D D D D D D D D D D D D D D D E.F.).> > > > > > ~ ]   ",
"  - ; > > > > > > < G.H.D D D D D D D D D D D D D D D D D D D D D D D D D D D D D D D D D D D D D D D D I.J.).> > > > > > ~ ]   ",
"  - ; > > > > > > < K.].D D D D D D D D D D D D D D D D D D D D D D D D D D D D D D D D D D D D D D D D L.M.).> > > > > > ~ ]   ",
"  - ; > > > > > > < N.O.D D D D D D D D D D D D D D D D D D D D D D D D D D D D D D D D D D D D D D D D H.P.< > > > > > > ~ ]   ",
"  - ; > > > > > > < Q.R.D D D D D D D D D D D D D D D D D D D D D D D D D D D D D D D D D D D D D D D D r.S.> > > > > > > ~ ]   ",
"  - ; > > > > > > > T.U.V.D D D D D D D D D D D D D D D D D D D D D D D D D D D D D D D D D D D D D D W.X.Y.> > > > > > > ~ ]   ",
"  - ; > > > > > > > Z.`. +D D D D D D D D D D D D D D D D D D D D D D D D D D D D D D D D D D D D D D .+++@+> > > > > > > ~ ]   ",
"  - ; > > > > > > > #+$+%+D D D D D D D D D D D D D D D D D D D D D D D D D D D D D D D D D D D D D &+*+=+).> > > > > > > ~ ]   ",
"  - ; > > > > > > > ^ -+;+D D D D D D D D D D D D D D D D D D D D D D D D D D D D D D D D D D D W.>+^.,+^ > > > > > > > > ~ ]   ",
"  - ; > > > > > > > > K 9.'+D D D D D D D D D D D D D D D D D D D D D D D D D D D D D D D D D )+!+~+{+> > > > > > > > > > ~ ]   ",
"  - ; > > > > > > > > > d ]+^+/+D D D D D D D D D D D D D D D D D D D D D D D D D D (+_+:+<+[+}+|+1 > > > > > > > > > > > ~ ]   ",
"  - ; > > > > > > > > > > d 1+2+3+4+D D D D D D D D D D D D D D D D D D D D D 5+6+7+8+9+0+a+8.| : > > > > > > > > > > > > ~ ]   ",
"  - ; > > > > > > > > > > > b+c+d+e+f+g+h+D D D D D D D D D D D D D D D D D D A.i+-+j+k+#+d < > > > > > > > > > > > > > > ~ ]   ",
"  - ; > > > > > > > > > > > > > j.> l+m+n+o+p+q+r+s+t+u+v+D D D D D D D D D D w+x+y+> > > > > > > > > > > > > > > > > > > ~ ]   ",
"  - ; > > > > > > > > > > > > > > < z+U A+i.B+C+D+E+F+G+H+D D D D D D D D D D I+J+K+[ > > > > > > > > > > > > > > > > > > ~ ]   ",
"  - ; > > > > > > > > > > > > > > > > > > v v ^ : } _ L+M+D D D D D D D D D D D N+O+j.> > > > > > > > > > > > > > > > > > ~ ]   ",
"  - ; > > > > > > > > > > > > > > > > > > > > > > > ).B+P+D D D D D D D D D D D Q+[.U > > > > > > > > > > > > > > > > > > ~ ]   ",
"  - ; > > > > > > > > > > > > > > > > > > > > > > > > U R+%.D D D D D D D D D D w+S+b > > > > > > > > > > > > > > > > > > ~ ]   ",
"  - ; > > > > > > > > > > > > > > > > > > > > > > > > T+U+V+D D D D D D D D D D D W+< < > > > > > > > > > > > > > > > > > ~ ]   ",
"  - ; > > > > > > > > > > > > > > > > > > > > > > > > X+Y+Z+D D D D D D D D D D D `+ @^ > > > > > > > > > > > > > > > > > ~ ]   ",
"  - ; > > > > > > > > > > > > > > > > > > > > > > > > T+.@+@D D D D D D D D D D D @@#@/ > > > > > > > > > > > > > > > > > ~ ]   ",
"  - ; > > > > > > > > > > > > > > > > > > > > > > > > X+$@%@D D D D D D D D D D D &@*@| > > > > > > > > > > > > > > > > > ~ ]   ",
"  - ; > > > > > > > > > > > > > > > > > > > > > > > > b =@-@D D D D D D D D D D D Q ;@( > > > > > > > > > > > > > > > > > ~ ]   ",
"  - ; > > > > > > > > > > > > > > > > > > > > > > > > >@,@'@D D D D D D D D D D D D )@!@> > > > > > > > > > > > > > > > > ~ ]   ",
"  - ; > > > > > > > > > > > > > > > > > > > > > > > > ~@{@V+D D D D D D D D D D D D ]@^@> > > > > > > > > > > > > > > > > ~ ]   ",
"  - ; > > > > > > > > > > > > > > > > > > > > > > > > >@/@(@D D D D D D D D D D D D _@:@> > > > > > > > > > > > > > > > > ~ ]   ",
"  - ; > > > > > > > > > > > > > > > > > > > > > > > < <@W+D D D D D D D D D D D D D [@}@V > > > > > > > > > > > > > > > > ~ ]   ",
"  - ; > > > > > > > > > > > > > > > > > > > > > > > d I |@D D D D D D D D D D D D D m.1@< > > > > > > > > > > > > > > > > ~ ]   ",
"  - ; > > > > > > > > > > > > > > > > > > > > > > > ^ 9 2@D D D D D D D D D D D D D 3@4@> > > > > > > > > > > > > > > > > ~ ]   ",
"  - ; > > > > > > > > > > > > > > > > > > > > > > > c.5@6@D D D D D D D D D D D D D 7@8@> > > > > > > > > > > > > > > > > ~ ]   ",
"  - ; > > > > > > > > > > > > > > > > > > > > > > > o.9@0@D D D D D D D D D D D D P a@| > > > > > > > > > > > > > > > > > ~ ]   ",
"  - ; > > > > > > > > > > > > > > > > > > > > > > > b@c@f.D D D D D D D D D D D D d@e@_ > > > > > > > > > > > > > > > > > ~ ]   ",
"  - ; > > > > > > > > > > > > > > > > > > > > > > > f@U.V.D D D D D D D D D D D q.g@h@< > > > > > > > > > > > > > > > > > ) =   ",
"  i@#+} } } } } } } } } } } } } } } } } } } } } } j.j@k@D D D D D D D D D D D D l@-+| ^ } } } } } } } } } } } } } } } } } d.#.  ",
"  m@n@o@o@o@o@o@o@o@o@o@o@o@o@o@o@o@o@o@o@o@o@o@o@p@q@r@:.D D D D D D D D D z.s@t@u@u@u@u@u@u@u@u@u@u@u@u@u@u@u@u@u@u@u@u@v@.   ",
"    W+W+W+W+W+W+W+W+W+W+W+W+W+W+W+W+W+W+W+W+W+W+W+W+W+w@x@6@y@z@A@A@A@A@6.B@C@W+W+W+W+W+W+W+W+W+W+W+W+W+W+W+W+W+W+W+W+W+W+W+    ",
"                                                            D@`+E@F@F@G@G@W+                                                    ",
"                                                                                                                                "};
